Coordinates
version=1
nRows=12
nColumns=33
inDegrees=yes

Units are S.I. units (second, meters, Newtons, ...)
Angles are in degrees.

endheader
time	ground_thorax_rot_x	ground_thorax_rot_y	ground_thorax_rot_z	ground_thorax_tx	ground_thorax_ty	ground_thorax_tz	clav_prot_r	clav_elev_r	scapula_abduction_r	scapula_elevation_r	scapula_upward_rot_r	scapula_winging_r	shoulder_elv_r	plane_of_elev_r	axial_rot_r	elbow_flexion_r	pro_sup_r	wrist_flex_r	wrist_dev_r	clav_prot_l	clav_elev_l	scapula_abduction_l	scapula_elevation_l	scapula_upward_rot_l	scapula_winging_l	shoulder_elv_l	plane_of_elev_l	axial_rot_l	elbow_flexion_l	pro_sup_l	wrist_flex_l	wrist_dev_l
      1.37000000	      1.52190178	      6.23369430	     -2.76734054	     -0.15796721	      1.00466725	      0.00966220	    -19.29257052	    -12.64600058	    -25.12635450	     -8.09680231	      7.58667670	      4.39366951	     50.82488246	    -33.58347619	     36.14775847	     78.07852668	      5.16622697	     -1.09508028	     17.79261580	      0.02907175	     -4.92765399	     -2.61450121	     -3.52160583	     -5.20694224	     -0.16783379	     47.26070822	    -35.86202558	    -13.03634246	     85.24351325	      4.43020280	     11.87940606	      3.60448345
      1.38000000	      1.53563255	      6.27239188	     -2.72816989	     -0.15809638	      1.00461956	      0.00970287	    -19.09818784	    -12.89880452	    -24.86478607	     -8.25921272	      7.40385864	      4.57008139	     50.22829787	    -32.47806632	     35.34852093	     76.40893003	      4.61102224	     -2.00277064	     18.61781746	      0.12387985	     -5.23017798	     -2.62399367	     -3.47622270	     -5.77108757	     -0.31392404	     47.70045382	    -34.42875572	    -12.64327779	     84.30406927	      4.04541858	     12.84127767	      4.75234116
      1.39000000	      1.54117672	      6.33185403	     -2.68200696	     -0.15819607	      1.00456559	      0.00973887	    -18.91003169	    -13.16456979	    -24.60999226	     -8.43589255	      7.22487489	      4.75255311	     49.64604203	    -31.37794194	     34.60162464	     74.62276244	      4.08474822	     -2.84598338	     19.41225645	      0.22234705	     -5.51837908	     -2.66464221	     -3.41725171	     -6.26906665	     -0.43775059	     48.11241149	    -32.99505699	    -12.33475175	     83.22596746	      3.74951470	     13.71822802	      5.72930667
      1.40000000	      1.54470292	      6.38874159	     -2.64699811	     -0.15827419	      1.00448486	      0.00977205	    -18.71029516	    -13.43258325	    -24.33549781	     -8.61485228	      7.04702837	      4.93647713	     49.08031556	    -30.24566867	     33.90024106	     72.71078131	      3.55420943	     -3.63693558	     20.19907444	      0.33574695	     -5.79501634	     -2.73406880	     -3.36663403	     -6.76047689	     -0.54939299	     48.49843006	    -31.52310531	    -12.00100127	     82.03118341	      3.49014793	     14.61262319	      6.64609127
      1.41000000	      1.61750856	      6.43664797	     -2.73766518	     -0.15811564	      1.00480276	      0.00975842	    -18.51910950	    -14.00879029	    -23.98804118	     -9.11354776	      6.95116750	      5.27940705	     48.78096658	    -29.44686437	     33.41039461	     70.82746957	      3.45387670	     -4.13977155	     20.44199156	      0.43609901	     -6.30593824	     -2.94942416	     -2.94168386	     -6.86807537	     -0.63352848	     48.55579061	    -30.47456308	    -11.63134449	     80.71369177	      3.46858631	     14.89702389	      7.10829952
      1.42000000	      1.53583198	      6.53332292	     -2.56851445	     -0.15837654	      1.00427279	      0.00979430	    -18.28961335	    -13.96879530	    -23.73428758	     -8.98417325	      6.72389612	      5.29774654	     47.96963538	    -27.97827300	     32.62422331	     68.49562994	      2.52603619	     -4.98780867	     21.74249592	      0.63485530	     -6.26783273	     -3.08166412	     -3.23765467	     -7.49295298	     -0.65471368	     48.99185150	    -28.62358123	    -11.35656532	     79.23824854	      3.10295805	     16.35590469	      8.18666734
      1.43000000	      1.60995803	      6.56746742	     -2.68127426	     -0.15819184	      1.00461675	      0.00978262	    -18.06563304	    -14.56799093	    -23.32959361	     -9.50672973	      6.63396843	      5.65748178	     47.71402197	    -27.16808193	     32.23395378	     66.39241144	      2.43936961	     -5.44261307	     21.92167456	      0.76666847	     -6.81527577	     -3.34020961	     -2.79559428	     -7.63997635	     -0.74112267	     49.08228578	    -27.53664070	    -10.95548582	     77.70508942	      3.11600184	     16.68561161	      8.65237500
      1.44000000	      1.54562981	      6.68452176	     -2.49929484	     -0.15840866	      1.00406490	      0.00982599	    -17.84085792	    -14.49887874	    -23.06235400	     -9.36513693	      6.45001838	      5.64666280	     46.94539453	    -25.65885053	     31.64920642	     63.75363576	      1.41758734	     -5.97977553	     23.05743497	      1.00522442	     -6.79582906	     -3.50946115	     -3.12957097	     -8.39410061	     -0.76678735	     49.59474396	    -25.56295467	    -10.66764385	     75.95932394	      2.81121803	     18.30895774	      9.59593448
      1.45000000	      1.62187344	      6.73339455	     -2.62709918	     -0.15817025	      1.00444392	      0.00980037	    -17.59008057	    -15.11413711	    -22.60949971	     -9.90608322	      6.36844783	      6.01571086	     46.73253570	    -24.86427087	     31.34349275	     61.42690569	      1.34258258	     -6.37757919	     23.16241232	      1.16516399	     -7.37153065	     -3.81792137	     -2.65911850	     -8.53480135	     -0.84697873	     49.70196126	    -24.47171017	    -10.31275613	     74.22708332	      2.87921809	     18.63860245	     10.01304236
      1.46000000	      1.55822509	      6.86503326	     -2.47306325	     -0.15831149	      1.00393811	      0.00984273	    -17.36387366	    -15.08073508	    -22.30210655	     -9.81848573	      6.24413831	      6.01083795	     45.97759033	    -23.38215241	     30.92763012	     58.50269190	      0.32930472	     -6.56567797	     24.05965718	      1.42137398	     -7.36641248	     -4.05913669	     -2.94274265	     -9.20085223	     -0.83583853	     50.14661217	    -22.53790959	    -10.08162996	     72.22747293	      2.70170874	     20.15263509	     10.66073027
      1.47000000	      1.64452924	      6.95981447	     -2.25381760	     -0.15823679	      1.00439059	      0.00981672	    -16.99011733	    -15.62623314	    -21.65466812	    -10.28709925	      6.16007992	      6.33669014	     46.01484831	    -23.01186585	     31.06315018	     56.26103165	      0.49836417	     -6.96951305	     24.04164667	      1.68782232	     -7.95124113	     -4.58798577	     -2.41617798	     -9.21863222	     -0.83724107	     50.20382983	    -21.86574122	    -10.27682683	     70.30500003	      2.89391721	     20.29460066	     11.00132585
      1.48000000	      1.51689719	      7.06905942	     -2.48434307	     -0.15818517	      1.00371599	      0.00980326	    -16.84459334	    -15.59667184	    -21.43082087	    -10.24081527	      6.12973222	      6.31744936	     44.94687221	    -21.09468828	     30.39472009	     52.81146117	     -0.69568070	     -6.70542651	     24.86663231	      1.91318178	     -7.83981403	     -4.79199201	     -2.76687250	     -9.80480587	     -0.79658219	     50.58729753	    -19.48069623	     -9.66259516	     68.01853254	      2.75529151	     21.89418250	     11.40814540
